HIERARCHY
ROOT Pelvis
{
	OFFSET 0.000000 0.000000 0.000000
	CHANNELS 6 Xposition Yposition Zposition Xrotation Yrotation Zrotation
	JOINT LeftUpLeg_virtual
	{
		OFFSET 0.000000 0.000000 0.000000
		CHANNELS 3 Xrotation Yrotation Zrotation
		JOINT LeftUpLeg
		{
			OFFSET 18.735201 -5.666702 -4.541200
			CHANNELS 3 Xrotation Yrotation Zrotation
			JOINT LeftLeg
			{
				OFFSET -0.021200 -31.938179 0.493100
				CHANNELS 3 Xrotation Yrotation Zrotation
				JOINT LeftFoot
				{
					OFFSET 0.021200 -31.938179 -4.336299
					CHANNELS 3 Xrotation Yrotation Zrotation
					JOINT LeftToeBase
					{
						OFFSET 0.943001 -26.722000 15.023500
						CHANNELS 3 Xrotation Yrotation Zrotation
						End Site
						{
							OFFSET 0 0 0
						}
					}
				}
			}
		}
	}
	JOINT RightUpLeg_virtual
	{
		OFFSET 0.000000 0.000000 0.000000
		CHANNELS 3 Xrotation Yrotation Zrotation
		JOINT RightUpLeg
		{
			OFFSET -18.735201 -5.666702 -4.541200
			CHANNELS 3 Xrotation Yrotation Zrotation
			JOINT RightLeg
			{
				OFFSET 0.018946 -31.938133 0.493100
				CHANNELS 3 Xrotation Yrotation Zrotation
				JOINT RightFoot
				{
					OFFSET -0.018946 -31.938126 -4.336299
					CHANNELS 3 Xrotation Yrotation Zrotation
					JOINT RightToeBase
					{
						OFFSET -0.943001 -26.722004 15.023500
						CHANNELS 3 Xrotation Yrotation Zrotation
						End Site
						{
							OFFSET 0 0 0
						}
					}
				}
			}
		}
	}
	JOINT Hips_virtual
	{
		OFFSET 0.000000 0.000000 0.000000
		CHANNELS 3 Xrotation Yrotation Zrotation
		JOINT Hips
		{
			OFFSET -0.000000 -0.000000 -0.000000
			CHANNELS 3 Xrotation Yrotation Zrotation
			JOINT Spine
			{
				OFFSET 0.000000 10.199997 -0.299500
				CHANNELS 3 Xrotation Yrotation Zrotation
				JOINT Spine1
				{
					OFFSET 0.000000 11.900002 -1.516600
					CHANNELS 3 Xrotation Yrotation Zrotation
					JOINT Spine2
					{
						OFFSET 0.000000 13.600006 -2.842500
						CHANNELS 3 Xrotation Yrotation Zrotation
						JOINT Neck_virtual
						{
							OFFSET 0.000000 0.000000 0.000000
							CHANNELS 3 Xrotation Yrotation Zrotation
							JOINT Neck
							{
								OFFSET 0.000000 9.624100 -2.890100
								CHANNELS 3 Xrotation Yrotation Zrotation
								JOINT Head
								{
									OFFSET 0.000000 14.068802 -1.351900
									CHANNELS 3 Xrotation Yrotation Zrotation
									End Site
									{
										OFFSET 0 0 0
									}
								}
							}
						}
						JOINT LeftShoulder_virtual
						{
							OFFSET 0.000000 0.000000 0.000000
							CHANNELS 3 Xrotation Yrotation Zrotation
							JOINT LeftShoulder
							{
								OFFSET 15.263000 10.923401 -0.547700
								CHANNELS 3 Xrotation Yrotation Zrotation
								JOINT LeftArm
								{
									OFFSET 25.438599 -2.830597 -13.032500
									CHANNELS 3 Xrotation Yrotation Zrotation
									JOINT LeftForeArm
									{
										OFFSET 29.960503 0.000000 0.000000
										CHANNELS 3 Xrotation Yrotation Zrotation
										JOINT LeftHand
										{
											OFFSET 27.849251 0.000000 0.000000
											CHANNELS 3 Xrotation Yrotation Zrotation
											End Site
											{
												OFFSET 0 0 0
											}
										}
									}
								}
							}
						}
						JOINT RightShoulder_virtual
						{
							OFFSET 0.000000 0.000000 0.000000
							CHANNELS 3 Xrotation Yrotation Zrotation
							JOINT RightShoulder
							{
								OFFSET -15.263000 10.923401 -0.547700
								CHANNELS 3 Xrotation Yrotation Zrotation
								JOINT RightArm
								{
									OFFSET -25.438599 -2.830597 -13.032500
									CHANNELS 3 Xrotation Yrotation Zrotation
									JOINT RightForeArm
									{
										OFFSET -29.960503 0.000000 0.000000
										CHANNELS 3 Xrotation Yrotation Zrotation
										JOINT RightHand
										{
											OFFSET -27.849251 0.000000 0.000000
											CHANNELS 3 Xrotation Yrotation Zrotation
											End Site
											{
												OFFSET 0 0 0
											}
										}
									}
								}
							}
						}
					}
				}
			}
		}
	}
}
MOTION
Frames: 5
Frame Time: 0.03333333
1.818841 44.503540 -0.989922 0.000000 0.000000 0.000000 0.978446 -28.506991 8.917718 -84.125610 -26.536391 51.215934 78.118820 4.424816 -6.432329 36.145337 -1.315081 -16.031123 0.000000 0.000000 0.000000 0.978446 -28.506991 8.917718 -30.127917 7.694042 -20.194448 107.619172 11.645801 -0.181032 33.455008 5.202150 24.842957 0.000000 0.000000 0.000000 0.978446 -28.506991 8.917718 -0.000000 0.000001 0.000001 3.559719 -6.181170 -4.217902 2.855675 -4.198783 -2.072993 0.000000 0.000000 0.000000 2.773303 -4.260251 -2.035174 0.192824 1.126497 0.868253 0.000000 0.000000 0.000000 2.773303 -4.260251 -2.035174 1.530509 -0.690789 -2.366978 -3.234549 -12.111244 -50.675380 0.000537 -87.973485 0.000652 0.000000 0.000000 0.000000 2.773303 -4.260251 -2.035174 5.585478 17.928710 2.373359 -33.414669 -16.065394 41.084633 179.999281 87.189721 -179.999445 0.000000 0.000000 0.000000 
1.794739 44.516121 -0.981682 0.000000 0.000000 0.000000 1.039977 -28.509370 8.977237 -84.111471 -26.460085 51.310413 78.075858 4.413281 -6.490000 36.158393 -1.237753 -15.999221 0.000000 0.000000 0.000000 1.039977 -28.509370 8.977237 -30.283580 7.708792 -20.136226 107.692091 11.616132 -0.179102 33.413845 5.158444 24.703466 0.000000 0.000000 0.000000 1.039977 -28.509370 8.977237 0.000000 0.000000 0.000000 3.553536 -6.127877 -4.346597 2.844910 -4.152764 -2.149814 0.000000 0.000000 0.000000 2.768607 -4.212009 -2.111295 0.200337 1.132792 0.945424 0.000000 0.000000 0.000000 2.768607 -4.212009 -2.111295 1.530164 -0.744398 -1.917309 -3.271997 -12.105441 -51.033032 0.001310 -88.077557 0.001426 0.000000 0.000000 0.000000 2.768607 -4.212009 -2.111295 5.560238 17.956441 2.651589 -32.494444 -15.150572 39.610299 179.999554 85.307184 -179.999582 0.000000 0.000000 0.000000 
1.769332 44.523193 -0.976027 0.000000 0.000000 0.000000 1.106832 -28.505328 9.047229 -84.110303 -26.374063 51.398758 78.026319 4.410401 -6.547011 36.171849 -1.190950 -15.959480 0.000000 0.000000 0.000000 1.106832 -28.505328 9.047229 -30.424593 7.718807 -20.090839 107.752306 11.601438 -0.178456 33.382488 5.124354 24.595632 0.000000 0.000000 0.000000 1.106832 -28.505328 9.047229 0.000000 -0.000003 0.000000 3.540972 -6.082699 -4.474713 2.829098 -4.112367 -2.227856 0.000000 0.000000 0.000000 2.758117 -4.169726 -2.188755 0.209316 1.140921 1.015291 0.000000 0.000000 0.000000 2.758117 -4.169726 -2.188755 1.512193 -0.744068 -1.544897 -3.279717 -12.155404 -51.329838 0.000021 -88.114358 -0.000209 0.000000 0.000000 0.000000 2.758117 -4.169726 -2.188755 5.540487 17.992979 2.918226 -31.912918 -14.467691 38.297646 179.999213 83.544811 -179.999185 0.000000 0.000000 0.000000 
1.741692 44.525276 -0.973379 0.000000 0.000000 0.000000 1.172246 -28.488422 9.118829 -84.110371 -26.292236 51.480833 77.967128 4.418193 -6.615320 36.189470 -1.177921 -15.912225 0.000000 0.000000 0.000000 1.172246 -28.488422 9.118829 -30.536536 7.711126 -20.057755 107.790234 11.594470 -0.181329 33.366051 5.101815 24.521680 0.000000 0.000000 0.000000 1.172246 -28.488422 9.118829 0.000000 -0.000002 0.000000 3.524594 -6.048939 -4.601641 2.810492 -4.080789 -2.306023 0.000000 0.000000 0.000000 2.744172 -4.136585 -2.266373 0.215620 1.147344 1.081317 0.000000 0.000000 0.000000 2.744172 -4.136585 -2.266373 1.480362 -0.701462 -1.238072 -3.264500 -12.231476 -51.554322 -0.000239 -88.164847 -0.000319 0.000000 0.000000 0.000000 2.744172 -4.136585 -2.266373 5.526708 18.040667 3.182610 -31.850938 -14.060286 37.299544 179.998776 81.908250 -179.998817 0.000000 0.000000 0.000000 
1.710846 44.522972 -0.973845 0.000000 0.000000 0.000000 1.227135 -28.455295 9.180695 -84.095707 -26.229851 51.560517 77.896573 4.437608 -6.706214 36.215108 -1.199103 -15.859660 0.000000 0.000000 0.000000 1.227135 -28.455295 9.180695 -30.606324 7.674221 -20.034126 107.797351 11.584754 -0.186523 33.371584 5.091732 24.476890 0.000000 0.000000 0.000000 1.227135 -28.455295 9.180695 0.000000 0.000002 -0.000001 3.508144 -6.027299 -4.726487 2.792436 -4.059421 -2.382833 0.000000 0.000000 0.000000 2.730228 -4.113887 -2.342638 0.215713 1.149306 1.146342 0.000000 0.000000 0.000000 2.730228 -4.113887 -2.342638 1.439693 -0.631329 -0.980949 -3.226690 -12.317103 -51.720238 -0.000058 -88.228115 0.000000 0.000000 0.000000 0.000000 2.730228 -4.113887 -2.342638 5.518883 18.099084 3.451664 -31.807320 -13.599834 36.387836 179.999759 80.423811 -179.999773 0.000000 0.000000 0.000000 
